<mxfile host="app.diagrams.net" agent="Mozilla/5.0 (Macintosh; Intel Mac OS X 10_15_7) AppleWebKit/537.36 (KHTML, like Gecko) Chrome/128.0.0.0 Safari/537.36" version="24.8.3">
  <diagram name="Page-1" id="K2F9U9xT6-q8BJG9NoC7">
    <mxGraphModel dx="1562" dy="805" grid="1" gridSize="10" guides="1" tooltips="1" connect="1" arrows="1" fold="1" page="1" pageScale="1" pageWidth="827" pageHeight="1169" math="0" shadow="0">
      <root>
        <mxCell id="0" />
        <mxCell id="1" parent="0" />
        <mxCell id="AgNIOPyjiJ7KgHtkXQK_-1" value="Start" style="ellipse;whiteSpace=wrap;html=1;" vertex="1" parent="1">
          <mxGeometry x="320" y="40" width="140" height="40" as="geometry" />
        </mxCell>
        <mxCell id="AgNIOPyjiJ7KgHtkXQK_-8" style="edgeStyle=orthogonalEdgeStyle;rounded=0;orthogonalLoop=1;jettySize=auto;html=1;exitX=0.5;exitY=1;exitDx=0;exitDy=0;entryX=0.5;entryY=0;entryDx=0;entryDy=0;" edge="1" parent="1" source="AgNIOPyjiJ7KgHtkXQK_-2" target="AgNIOPyjiJ7KgHtkXQK_-7">
          <mxGeometry relative="1" as="geometry" />
        </mxCell>
        <mxCell id="AgNIOPyjiJ7KgHtkXQK_-2" value="Input number" style="shape=parallelogram;perimeter=parallelogramPerimeter;whiteSpace=wrap;html=1;fixedSize=1;" vertex="1" parent="1">
          <mxGeometry x="320" y="120" width="130" height="60" as="geometry" />
        </mxCell>
        <mxCell id="AgNIOPyjiJ7KgHtkXQK_-5" style="edgeStyle=orthogonalEdgeStyle;rounded=0;orthogonalLoop=1;jettySize=auto;html=1;exitX=0.5;exitY=1;exitDx=0;exitDy=0;entryX=0.592;entryY=0.067;entryDx=0;entryDy=0;entryPerimeter=0;" edge="1" parent="1" source="AgNIOPyjiJ7KgHtkXQK_-1" target="AgNIOPyjiJ7KgHtkXQK_-2">
          <mxGeometry relative="1" as="geometry">
            <Array as="points">
              <mxPoint x="390" y="100" />
              <mxPoint x="391" y="100" />
            </Array>
          </mxGeometry>
        </mxCell>
        <mxCell id="AgNIOPyjiJ7KgHtkXQK_-16" style="edgeStyle=orthogonalEdgeStyle;rounded=0;orthogonalLoop=1;jettySize=auto;html=1;exitX=1;exitY=0.5;exitDx=0;exitDy=0;entryX=0.5;entryY=0;entryDx=0;entryDy=0;" edge="1" parent="1" source="AgNIOPyjiJ7KgHtkXQK_-7" target="AgNIOPyjiJ7KgHtkXQK_-13">
          <mxGeometry relative="1" as="geometry" />
        </mxCell>
        <mxCell id="AgNIOPyjiJ7KgHtkXQK_-7" value="&lt;font style=&quot;font-size: 10px;&quot;&gt;Check if remainder of number/2&amp;nbsp;&lt;/font&gt;&lt;div style=&quot;font-size: 10px;&quot;&gt;&lt;font style=&quot;font-size: 10px;&quot;&gt;is equal to 0&lt;/font&gt;&lt;/div&gt;" style="rhombus;whiteSpace=wrap;html=1;" vertex="1" parent="1">
          <mxGeometry x="286.25" y="200" width="193.75" height="90" as="geometry" />
        </mxCell>
        <mxCell id="AgNIOPyjiJ7KgHtkXQK_-13" value="Number is even" style="shape=parallelogram;perimeter=parallelogramPerimeter;whiteSpace=wrap;html=1;fixedSize=1;" vertex="1" parent="1">
          <mxGeometry x="560" y="300" width="140" height="60" as="geometry" />
        </mxCell>
        <mxCell id="AgNIOPyjiJ7KgHtkXQK_-17" value="Yes" style="text;html=1;align=center;verticalAlign=middle;resizable=0;points=[];autosize=1;strokeColor=none;fillColor=none;" vertex="1" parent="1">
          <mxGeometry x="510" y="218" width="40" height="30" as="geometry" />
        </mxCell>
        <mxCell id="AgNIOPyjiJ7KgHtkXQK_-19" value="No" style="text;html=1;align=center;verticalAlign=middle;resizable=0;points=[];autosize=1;strokeColor=none;fillColor=none;" vertex="1" parent="1">
          <mxGeometry x="199.5" y="218" width="40" height="30" as="geometry" />
        </mxCell>
        <mxCell id="AgNIOPyjiJ7KgHtkXQK_-20" value="Number is odd" style="shape=parallelogram;perimeter=parallelogramPerimeter;whiteSpace=wrap;html=1;fixedSize=1;" vertex="1" parent="1">
          <mxGeometry x="140" y="300" width="150" height="60" as="geometry" />
        </mxCell>
        <mxCell id="AgNIOPyjiJ7KgHtkXQK_-21" style="edgeStyle=orthogonalEdgeStyle;rounded=0;orthogonalLoop=1;jettySize=auto;html=1;exitX=0;exitY=0.5;exitDx=0;exitDy=0;entryX=0.373;entryY=0.008;entryDx=0;entryDy=0;entryPerimeter=0;" edge="1" parent="1" source="AgNIOPyjiJ7KgHtkXQK_-7" target="AgNIOPyjiJ7KgHtkXQK_-20">
          <mxGeometry relative="1" as="geometry" />
        </mxCell>
      </root>
    </mxGraphModel>
  </diagram>
</mxfile>
